<svg width="12" height="15" viewBox="0 0 12 15" fill="none" xmlns="http://www.w3.org/2000/svg">
<path fill-rule="evenodd" clip-rule="evenodd" d="M2.41667 0.875C2.63911 0.875 2.81944 1.05533 2.81944 1.27778V2.88889H3.22222C4.11201 2.88889 4.83333 3.61021 4.83333 4.5V8.52778C4.83333 9.41757 4.11201 10.1389 3.22222 10.1389H2.81944V14.1667C2.81944 14.3891 2.63911 14.5694 2.41667 14.5694C2.19422 14.5694 2.01389 14.3891 2.01389 14.1667V10.1389H1.61111C0.72132 10.1389 0 9.41757 0 8.52778V4.5C0 3.61021 0.721319 2.88889 1.61111 2.88889H2.01389V1.27778C2.01389 1.05533 2.19422 0.875 2.41667 0.875Z" fill="#CDFF00"/>
<path fill-rule="evenodd" clip-rule="evenodd" d="M9.2639 1.27778C9.2639 1.05533 9.08357 0.875 8.86112 0.875C8.63868 0.875 8.45835 1.05533 8.45835 1.27778V5.30556H8.05557C7.16578 5.30556 6.44446 6.02688 6.44446 6.91667V10.9444C6.44446 11.8342 7.16578 12.5556 8.05557 12.5556H8.45835V14.1667C8.45835 14.3891 8.63868 14.5694 8.86112 14.5694C9.08357 14.5694 9.2639 14.3891 9.2639 14.1667V12.5556H9.66668C10.5565 12.5556 11.2778 11.8342 11.2778 10.9444V6.91667C11.2778 6.02688 10.5565 5.30556 9.66668 5.30556H9.2639V1.27778Z" fill="#FF3440"/>
</svg>
