<svg width="40" height="40" viewBox="0 0 40 40" fill="none" xmlns="http://www.w3.org/2000/svg">
<rect width="40" height="40" rx="20" fill="url(#paint0_radial_2107_244)"/>
<path d="M13.701 19.8865L13.7104 23.324L16.6313 25.0427V27.0552L12.001 24.3396V18.8813L13.701 19.8865ZM13.701 16.449V18.4521L12 17.4458V15.4427L13.701 14.4365L15.4104 15.4427L13.701 16.449ZM17.851 15.4427L19.5521 14.4365L21.2615 15.4427L19.5521 16.449L17.851 15.4427Z" fill="#FFD348"/>
<path d="M14.9326 22.6115V20.599L16.6337 21.6052V23.6083L14.9326 22.6115ZM17.8535 25.7635L19.5545 26.7698L21.2639 25.7635V27.7667L19.5545 28.7729L17.8535 27.7667V25.7635ZM23.7035 15.4427L25.4045 14.4365L27.1139 15.4427V17.4458L25.4045 18.4521V16.449L23.7035 15.4427ZM25.4045 23.324L25.4139 19.8865L27.1149 18.8802V24.3385L22.4847 27.0542V25.0417L25.4045 23.324Z" fill="#FFD348"/>
<path d="M24.1819 22.6114L22.4808 23.6083V21.6052L24.1819 20.5989V22.6114Z" fill="#FFD348"/>
<path d="M24.1847 17.1615L24.1941 19.174L21.2649 20.8927V24.3385L19.5639 25.3354L17.8628 24.3385V20.8927L14.9337 19.174V17.1615L16.642 16.1552L19.5535 17.8823L22.4826 16.1552L24.192 17.1615H24.1847ZM14.9326 13.725L19.5545 11L24.1847 13.725L22.4837 14.7312L19.5545 13.0042L16.6337 14.7312L14.9326 13.725Z" fill="#FFD348"/>
<defs>
<radialGradient id="paint0_radial_2107_244" cx="0" cy="0" r="1" gradientUnits="userSpaceOnUse" gradientTransform="translate(20 20) rotate(90) scale(62.5)">
<stop offset="0.0383407" stop-color="#735C12"/>
<stop offset="0.95" stop-color="#F6CB44"/>
</radialGradient>
</defs>
</svg>
