<svg width="40" height="40" viewBox="0 0 40 40" fill="none" xmlns="http://www.w3.org/2000/svg">
<rect width="40" height="40" rx="20" fill="url(#paint0_radial_2107_271)"/>
<path d="M18.6344 25.1832L19.9173 21.2858L23.45 20.4694C23.6678 20.4192 23.8686 20.3132 24.0328 20.1617C24.1971 20.0102 24.319 19.8185 24.3865 19.6055L24.3997 19.564C24.7018 18.6116 23.8494 17.6938 22.8773 17.9247L20.8699 18.3917L22.3248 13.9718C22.6446 13.0002 21.9209 12 20.8979 12C20.2563 12 19.6855 12.4076 19.4772 13.0144L17.3435 19.2293L14.9907 19.7901C14.791 19.8375 14.6056 19.9321 14.4499 20.0658C14.2943 20.1996 14.1729 20.3687 14.096 20.559C13.7062 21.5232 14.5632 22.527 15.5766 22.2933L16.3556 22.1071L14.7655 26.7389C14.5533 27.3569 15.0125 28 15.6659 28H24.7809C25.3845 28 25.921 27.6154 26.1148 27.0438C26.4243 26.1305 25.7452 25.1832 24.7809 25.1832H18.6344Z" fill="#4885CC"/>
<defs>
<radialGradient id="paint0_radial_2107_271" cx="0" cy="0" r="1" gradientUnits="userSpaceOnUse" gradientTransform="translate(20 20) rotate(90) scale(70)">
<stop stop-color="#1C334F"/>
<stop offset="0.95" stop-color="#4885CC"/>
</radialGradient>
</defs>
</svg>
