<svg width="40" height="40" viewBox="0 0 40 40" fill="none" xmlns="http://www.w3.org/2000/svg">
<rect width="40" height="40" rx="20" fill="url(#paint0_radial_2107_127)"/>
<path d="M13.9248 23.6853C14.0334 23.5775 14.1828 23.5146 14.3412 23.5146H28.7068C28.9693 23.5146 29.1005 23.829 28.915 24.0131L26.0772 26.8293C25.9685 26.9371 25.8192 27 25.6608 27H11.2952C11.0327 27 10.9014 26.6856 11.087 26.5014L13.9248 23.6853Z" fill="#00FFA3"/>
<path d="M13.9246 13.1707C14.0378 13.0629 14.1871 13 14.341 13H28.7066C28.9691 13 29.1004 13.3144 28.9148 13.4986L26.077 16.3147C25.9684 16.4225 25.819 16.4854 25.6606 16.4854H11.295C11.0325 16.4854 10.9012 16.171 11.0868 15.9868L13.9246 13.1707Z" fill="#00FFA3"/>
<path d="M26.0772 18.3943C25.9685 18.2865 25.8192 18.2236 25.6608 18.2236H11.2952C11.0327 18.2236 10.9014 18.538 11.087 18.7222L13.9248 21.5384C14.0334 21.6462 14.1828 21.709 14.3412 21.709H28.7068C28.9693 21.709 29.1005 21.3946 28.915 21.2105L26.0772 18.3943Z" fill="#00FFA3"/>
<defs>
<radialGradient id="paint0_radial_2107_127" cx="0" cy="0" r="1" gradientUnits="userSpaceOnUse" gradientTransform="translate(20 20) rotate(90) scale(74)">
<stop offset="0.0245565" stop-color="#106345"/>
<stop offset="0.95" stop-color="#00FFA3"/>
</radialGradient>
</defs>
</svg>
