<svg width="548" height="141" viewBox="0 0 548 141" fill="none" xmlns="http://www.w3.org/2000/svg">
<path fill-rule="evenodd" clip-rule="evenodd" d="M464.404 67.2565L429.283 115.679H454.551L477.139 82.6311L500.061 115.679H525.465L514.056 99.8631L514.02 99.8434L489.585 67.066L484.303 59.98L477.866 51.3452L477.848 51.37L477.17 50.4115L476.879 50.0217L476.87 49.9876L456.046 20.5834H431.049L464.404 67.2565ZM484.705 41.505L496.828 57.0376L523.156 20.5834H499.246L484.705 41.505Z" fill="white"/>
<path fill-rule="evenodd" clip-rule="evenodd" d="M496.768 57.0365L523.095 20.5835H499.186L484.645 41.5038L496.768 57.0365Z" fill="white"/>
<path d="M385.995 117.306C379.565 117.306 373.632 116.129 368.198 113.774C362.855 111.329 358.462 107.887 355.021 103.449L367.247 88.7775C369.874 92.219 372.636 94.8455 375.534 96.6568C378.432 98.3776 381.557 99.238 384.908 99.238C393.874 99.238 398.357 93.9851 398.357 83.4793V41.2198H373.433V20.5807H420.229V82.2567C420.229 94.0304 417.331 102.815 411.535 108.612C405.738 114.408 397.225 117.306 385.995 117.306Z" fill="white"/>
<path d="M264.428 115.676V20.5807H305.591C314.104 20.5807 321.44 21.9844 327.598 24.792C333.757 27.509 338.512 31.4487 341.863 36.611C345.214 41.7733 346.889 47.9319 346.889 55.0866C346.889 62.1508 345.214 68.2641 341.863 73.4264C338.512 78.4982 333.757 82.3925 327.598 85.1096C321.44 87.8266 314.104 89.1851 305.591 89.1851H276.655L286.436 79.5397V115.676H264.428ZM324.881 115.676L301.108 81.1699H324.61L348.655 115.676H324.881ZM286.436 81.985L276.655 71.6604H304.368C311.161 71.6604 316.232 70.2113 319.583 67.3132C322.934 64.3245 324.61 60.2489 324.61 55.0866C324.61 49.8338 322.934 45.7582 319.583 42.8601C316.232 39.962 311.161 38.5129 304.368 38.5129H276.655L286.436 28.0524V81.985Z" fill="white"/>
<path d="M206.056 117.306C192.562 117.306 182.011 113.548 174.403 106.03C166.796 98.5134 162.992 87.7813 162.992 73.834V20.5806H184.999V73.0189C184.999 82.0756 186.856 88.5964 190.569 92.5813C194.283 96.5662 199.49 98.5587 206.192 98.5587C212.894 98.5587 218.102 96.5662 221.815 92.5813C225.528 88.5964 227.385 82.0756 227.385 73.0189V20.5806H249.121V73.834C249.121 87.7813 245.317 98.5134 237.709 106.03C230.102 113.548 219.551 117.306 206.056 117.306Z" fill="white"/>
<path fill-rule="evenodd" clip-rule="evenodd" d="M24.6181 52.1502L30.4038 46.3927L36.1895 52.1502L30.4038 57.9077L24.6181 52.1502ZM22.5693 88.8236L30.3975 81.0336L38.2256 88.8236L30.3975 96.6136L22.5693 88.8236ZM74.9294 100.61L58.0227 117.425L41.116 100.61L58.0227 83.7761L65.5346 91.2514L74.9294 100.61ZM32.5103 69.1023L45.2737 56.401L58.0372 69.1023L45.2737 81.8035L32.5103 69.1023Z" fill="#CDFF00"/>
<path d="M145.213 74.7715C141.891 71.1836 137.57 68.6628 132.801 67.5316C136.953 66.0398 140.618 63.4483 143.399 60.0367C146.28 56.4316 147.826 51.9487 147.776 47.3425C147.776 38.5919 144.118 31.872 136.932 27.3495C129.745 22.8271 119.236 20.5806 105.514 20.5806H50.7322L65.4602 34.9229L65.5292 35.0113V76.5569L89.7211 100.631V75.6544H110.561C121.04 75.782 126.147 80.0101 126.147 88.5743C126.218 90.2991 125.848 92.0136 125.072 93.5576C124.296 95.1017 123.14 96.4248 121.711 97.4034C118.753 99.542 114.514 100.631 109.171 100.631H89.7211L72.8341 117.426H109.881C122.697 117.347 132.772 114.875 139.741 110.098C146.711 105.32 150.309 98.1195 150.309 88.7803C150.445 83.6384 148.625 78.6349 145.213 74.7715ZM106.47 60.7823H89.7113V37.5226H105.484C111.764 37.5226 116.427 38.5036 119.286 40.3087C122.145 42.1137 123.535 45.145 123.535 49.3143C123.584 56.8092 117.984 60.5959 106.47 60.7823Z" fill="white"/>
</svg>
